<svg xmlns="http://www.w3.org/2000/svg" width="256" height="190" viewBox="0 0 256 190">
<!-- SVG created with Arrow, by QuiverAI (https://quiver.ai) -->
  <path d="m197.2 136.7 6.27-6.37h-73.95l-0.02 0.02h-38.81v41.77h112.8l-6-5.85 6.17-7-6.28-7.94 6.37-7.48-6.53-7.15z" fill="#A272D6"/>
  <path d="m47.42 159.1 5.2-6.38 0.46-0.31c-2.27-4.19-3.81-8.97-3.81-14.26v-7.83h23.52l0.02-0.02h56.67l-52.74 57.33v-8.61h-9.78l-0.98-9.78h-9.45l-0.98-9.45-8.13-0.69z" fill="#F7DB5B"/>
  <path d="m26.48 62.32 7.81-4.59-4.18-8.52 7.52-4.4-3.55-9.7 8.88-4.94-4.3-7.98 106.8 29.23 13.03 47.54-29.13 31.33h-80.09v-122.1l6.05 6.05 6.79-6.79 7.66 7.16 7.04-7.04 8.31 6.21 5.55-5.73v122.2h-41.4v-63.27l-22.79-4.7z" fill="#FAC761"/>
  <path d="m53.22 151.9c-2.61-4.57-3.95-9.72-3.95-14.99v-6.6h80.21l-38.81 41.79-37.45-20.2z" fill="#A4488A"/>
  <path d="m90.67 130.3h-17.86l-19.59 21.59c0.74 1.28 1.57 2.52 2.49 3.69l34.96 16.51v-41.79z" fill="#9E3C75"/>
  <path d="m145.5 51.42-31.74 35.35 44.77 12.19-13.03-47.54z" fill="#F3B42E"/>
  <path d="m49.27 24.26v43.52l41.4 11.53v-43.24l-41.4-11.81z" fill="#F37333"/>
  <path d="m90.67 8.08-5.55 5.73-8.31-6.21-7.04 7.04-7.66-7.16-6.79 6.79-6.05-6.05v16.04l41.4 11.81v-27.99z" fill="#F5824B"/>
  <path d="m113.7 86.77-23.05 24.07v19.45h38.69l29.13-31.33-44.77-12.19z" fill="#F7DF5B"/>
  <path d="m49.27 130.3h23.54l17.86-20.13v-30.85l-41.4-11.53v62.51z" fill="#F58250"/>
</svg>