<svg xmlns="http://www.w3.org/2000/svg" width="256" height="256" viewBox="0 0 256 256">
  <path d="m197.2 136.7 6.27-6.37h-73.95l-0.02 0.02h-38.81v41.77h112.8l-6-5.85 6.17-7-6.28-7.94 6.37-7.48-6.53-7.15z" fill="#A272D6"/>
  <path d="m47.42 159.1 5.2-6.38 0.46-0.31c-2.27-4.19-3.81-8.97-3.81-14.26v-7.83h23.52l0.02-0.02h56.67l-52.74 57.33v-8.61h-9.78l-0.98-9.78h-9.45l-0.98-9.45-8.13-0.69z" fill="#F7DB5B"/>
  <path d="m26.48 62.32 7.81-4.59-4.18-8.52 7.52-4.4-3.55-9.7 8.88-4.94-4.3-7.98 106.8 29.23 13.03 47.54-29.13 31.33h-80.09v-122.1l6.05 6.05 6.79-6.79 7.66 7.16 7.04-7.04 8.31 6.21 5.55-5.73v122.2h-41.4v-63.27l-22.79-4.7z" fill="#FAC761"/>
  <path d="m53.22 151.9c-2.61-4.57-3.95-9.72-3.95-14.99v-6.6h80.21l-38.81 41.79-37.45-20.2z" fill="#A4488A"/>
  <path d="m90.67 130.3h-17.86l-19.59 21.59c0.74 1.28 1.57 2.52 2.49 3.69l34.96 16.51v-41.79z" fill="#9E3C75"/>
  <path d="m145.5 51.42-31.74 35.35 44.77 12.19-13.03-47.54z" fill="#F3B42E"/>
  <path d="m49.27 24.26v43.52l41.4 11.53v-43.24l-41.4-11.81z" fill="#F37333"/>
  <path d="m90.67 8.08-5.55 5.73-8.31-6.21-7.04 7.04-7.66-7.16-6.79 6.79-6.05-6.05v16.04l41.4 11.81v-27.99z" fill="#F5824B"/>
  <path d="m113.7 86.77-23.05 24.07v19.45h38.69l29.13-31.33-44.77-12.19z" fill="#F7DF5B"/>
  <path d="m49.27 130.3h23.54l17.86-20.13v-30.85l-41.4-11.53v62.51z" fill="#F58250"/>
  <path d="m16.71 200.6h6.22v41.29h25.55v5.86h-31.77v-47.15z" fill="#000"/>
  <path d="m83.69 225v22.74h-5.98v-4.36c-2.18 3.24-6.1 5.18-11.66 5.18-8.09 0-13.27-3.93-13.27-10.56 0-6.49 5.18-10.17 13.61-10.17h10.97v-2.62c0-5.18-2.84-7.43-8.47-7.43-3.92 0-7.23 1.33-10.28 3.88l-2.55-5.7c3.85-2.91 8.7-4.57 13.95-4.57 9.17 0 13.68 4.64 13.68 13.61zm-6.33 11.73v-4.7h-9.85c-5.5 0-7.46 2.62-7.46 5.63 0 3.6 2.88 5.92 7.99 5.92 4.77 0 8.11-2.59 9.32-6.85z" fill="#000"/>
  <path d="m129.7 229.8c0 11.09-7.4 18.59-16.7 18.59-5.57 0-9.77-2.39-12.18-6.38v5.69h-5.56v-49.44h5.56v18.66c3.02-3.71 7.22-5.78 12.18-5.78 9.7 0 16.7 6.95 16.7 18.66zm-6.05-0.41c0-7.7-4.89-12.47-11.36-12.47-6.93 0-11.67 4.91-11.67 12.47 0 7.37 5.15 13.13 11.67 13.1 6.53-0.04 11.36-5.05 11.36-13.1z" fill="#000"/>
  <path d="m170.1 231.7h-29.16c0.68 6.59 5.7 10.58 12.97 10.58 4.27 0 7.85-1.6 10.26-4.4l4.27 4.7c-3.38 3.92-8.4 5.86-14.67 5.86-11.24 0-18.91-7.83-18.91-19.2 0-10.83 7.47-18.37 17.9-18.37 10.22 0 17.29 7.77 17.29 18.64 0 0.62 0 1.44 0.05 2.19zm-29.16-3.92h23.3c-0.85-6.37-5.25-10.53-11.44-10.53-6.23 0-10.74 3.95-11.86 10.53z" fill="#000"/>
  <path d="m178.3 198.3h6.09v49.44h-6.09v-49.44z" fill="#000"/>
  <path d="m194.8 200.7h10.64v47.01h-10.64v-47.01z" fill="#000"/>
  <path d="m238.9 245.8c-2.18 1.6-5.56 2.21-9.07 2.21-9.1 0-12.88-4.77-12.88-13.8v-13.85h-5.78v-8.33h5.78v-9.17h10.02v9.17h9.82v8.33h-9.82v13.71c0 3.59 1.43 5.39 4.48 5.39 1.57 0 3.27-0.54 4.48-1.43l2.97 7.77z" fill="#000"/>
</svg>
